<svg width="1257" height="1256" viewBox="0 0 1257 1256" fill="none" xmlns="http://www.w3.org/2000/svg">
<g clip-path="url(#clip0_30_2)">
<path d="M840.821 691.382C823.141 704.456 810.966 721.128 804.146 741.651C800.925 751.346 799.149 761.3 799.385 771.561C799.426 773.314 799.391 775.069 799.391 778.096C784.836 764.243 770.146 752.386 753.783 742.745C737.481 733.141 720.187 725.808 701.613 720.374C702.557 716.983 703.314 713.836 704.305 710.765C713.494 682.292 727.969 656.891 748.172 634.722C772.338 608.205 801.468 589.407 835.458 578.105C853.257 572.187 871.535 568.891 890.337 568.179C919.002 567.094 943.645 556.508 963.046 535.191C978.995 517.665 987.815 496.967 989.08 473.052C990.178 452.283 985.449 433.097 974.575 415.516C959.416 391.008 937.59 375.455 909.403 369.432C884.89 364.193 861.543 368.079 839.62 380.293C838.476 380.93 837.333 381.572 836.162 382.156C835.902 382.285 835.523 382.175 834.844 382.175C834.976 380.945 834.951 379.677 835.264 378.499C840.642 358.254 842.654 337.635 842.083 316.746C841.694 302.489 839.689 288.422 836.664 274.491C835.822 270.615 836.147 270.009 840.042 269.069C850.872 266.456 861.805 264.366 872.959 263.876C881.961 263.481 891.006 262.839 899.98 263.303C916.354 264.15 932.448 266.989 948.202 271.736C977.238 280.485 1003.12 294.903 1025.7 315.032C1051.25 337.809 1069.95 365.345 1081.64 397.583C1087.88 414.755 1091.85 432.414 1093.32 450.596C1093.96 458.418 1094.39 466.312 1094.08 474.141C1093.01 501.905 1086.89 528.534 1075.15 553.804C1066.03 573.432 1054.2 591.28 1039.46 607.112C1023.93 623.8 1006.1 637.574 985.92 648.333C966.516 658.678 945.995 665.724 924.384 669.455C916.19 670.87 907.823 671.535 899.505 671.935C878.216 672.96 858.558 678.651 840.821 691.382Z" fill="black"/>
<path d="M740.834 1112.61C717.481 1125.55 692.959 1133.68 666.781 1137.08C654.357 1138.69 641.904 1139.19 629.499 1138.49C597.113 1136.65 566.698 1127.69 538.475 1111.57C520.532 1101.33 504.451 1088.67 490.494 1073.48C464.28 1044.94 447.289 1011.65 439.591 973.621C436.189 956.82 435.175 939.837 436.026 922.81C436.968 903.954 440.709 885.535 446.797 867.619C450.551 856.572 455.516 846.071 460.825 835.711C479.167 799.917 473.903 755.677 446.769 724.596C439.284 716.022 430.559 708.817 420.537 703.279C419.596 702.759 418.719 702.124 416.997 701.02C435.942 695.637 453.402 688.865 469.778 679.558C486.227 670.209 501.388 659.084 515.094 645.729C519.673 648.638 522.763 652.693 526.029 656.471C547.633 681.458 562.388 710.019 570.358 742.071C575.418 762.421 576.854 783.1 575.671 803.972C574.055 832.485 566.434 859.388 553.354 884.744C548.066 894.994 543.926 905.563 541.938 917.013C538.409 937.338 541.184 956.767 549.635 975.432C559.1 996.335 574.255 1012.01 594.431 1022.79C604.469 1028.15 615.234 1031.64 626.527 1033.2C652.3 1036.75 676.049 1031.25 697.561 1016.63C718.519 1002.39 731.817 982.683 738.3 958.311C740.794 948.935 741.72 939.358 741.359 929.068C742.519 929.871 743.466 930.339 744.176 931.045C769.288 956.037 798.886 973.605 832.548 984.478C838.834 986.509 838.855 986.579 837.025 992.66C828.151 1022.15 813.488 1048.44 792.82 1071.27C777.872 1087.78 760.747 1101.68 740.834 1112.61Z" fill="black"/>
<path d="M543.818 514.607C520.877 505.382 500.541 492.744 482.415 476.457C467.903 463.417 455.948 448.362 445.281 432.095C428.769 406.914 405.564 391.517 375.658 387.062C345.2 382.525 317.99 390.605 294.814 410.683C275.211 427.666 263.86 449.421 261.101 475.364C257.923 505.241 266.763 531.263 286.657 553.639C293.685 561.543 301.854 568.051 311.057 573.273C312.15 573.894 313.149 574.679 314.718 575.745C309.979 577.226 305.824 578.478 301.7 579.822C270.823 589.883 243.56 606.098 219.637 627.992C216.388 630.966 216.031 631.022 212.914 627.718C193.445 607.079 178.455 583.639 168.62 556.964C162.242 539.665 158.209 521.841 156.798 503.476C156.171 495.325 155.696 487.103 156.022 478.948C157.083 452.373 162.731 426.788 173.608 402.423C182.847 381.729 195.189 363.057 210.608 346.5C226.489 329.447 244.747 315.392 265.474 304.598C284.515 294.683 304.528 287.595 325.74 284.227C334.282 282.871 343.005 282.684 351.582 281.502C359.964 280.348 368.251 281.343 376.551 281.879C397.126 283.21 416.98 287.845 436.16 295.423C464.533 306.634 489.143 323.397 510.106 345.492C519.837 355.747 528.189 367.092 535.769 379.017C545.314 394.032 558.175 405.523 573.929 413.618C590.136 421.945 607.48 425.69 625.725 424.628C642.223 423.668 657.527 418.714 671.701 410.243C672.39 409.831 673.106 409.463 674.788 408.535C669.624 427.679 666.944 446.331 666.681 465.238C666.417 484.259 668.904 503.03 673.464 521.985C629.36 533.496 586.391 531.108 543.818 514.607Z" fill="black"/>
<path d="M449.307 281.987C441.287 278.981 433.617 276.111 425.923 273.304C422.195 271.944 421.855 271.521 422.943 267.737C428.503 248.401 436.691 230.268 447.59 213.323C455.341 201.27 464.217 190.099 474.329 180.032C488.918 165.51 505.297 153.276 523.59 143.641C543.039 133.397 563.535 126.234 585.191 122.632C593.719 121.213 602.412 120.346 611.052 120.151C621.357 119.917 631.719 120.253 641.995 121.091C662.578 122.77 682.241 128.395 701.173 136.492C727.795 147.879 750.974 164.296 770.533 185.588C791.23 208.118 806.248 234.045 815.35 263.312C819.295 275.998 821.967 288.93 823.438 302.153C824.932 315.579 825.006 329.056 823.877 342.413C821.808 366.893 815.54 390.4 804.659 412.544C799.385 423.279 793.804 433.85 791.268 445.711C785.987 470.407 789.22 493.83 801.335 516.013C810.787 533.32 824.221 546.627 841.558 556.021C841.971 556.245 842.313 556.603 843.42 557.474C824.623 562.774 807.044 569.607 790.555 578.978C774.1 588.329 758.975 599.506 744.918 613.106C741.33 609.337 737.833 605.963 734.676 602.297C710.528 574.25 694.799 542.148 687.874 505.719C684.859 489.861 683.669 473.886 684.45 457.841C685.793 430.241 692.434 403.872 704.475 378.935C708.746 370.091 713.5 361.491 716.127 351.909C722.861 327.34 720.965 303.519 709.647 280.721C694.736 250.685 670.422 232.304 637.637 225.964C612.538 221.11 588.642 225.698 566.816 239.232C542.095 254.561 527.152 276.915 520.949 305.135C519.239 312.915 518.702 320.904 519.28 329.964C514.702 325.761 510.792 321.988 506.682 318.448C502.339 314.707 497.912 311.045 493.324 307.611C488.865 304.272 484.243 301.128 479.533 298.151C474.687 295.088 469.728 292.182 464.673 289.481C459.761 286.856 454.663 284.579 449.307 281.987Z" fill="black"/>
<path d="M675.844 732.336C706.636 737.705 734.343 749.416 759.51 767.127C782.068 783.003 800.219 803.022 815.12 826.172C831.675 851.892 855.354 867.158 885.553 871.573C915.445 875.944 942.229 867.781 965.076 848.277C985.649 830.713 997.378 807.995 999.595 780.946C1001.99 751.698 993.268 725.956 973.218 704.327C969.341 700.145 965.065 696.261 960.586 692.729C956.104 689.195 951.137 686.275 946.044 682.859C947.26 682.392 948.353 681.875 949.5 681.547C978.869 673.131 1005.57 659.566 1029.32 640.301C1033.01 637.31 1036.61 634.205 1040.18 631.07C1044.24 627.504 1044.49 627.412 1048.02 631.218C1057.84 641.819 1066.72 653.149 1074.31 665.466C1089.77 690.517 1099.48 717.704 1102.89 746.84C1108.5 794.771 1099.38 839.832 1073.49 880.868C1043.77 927.953 1001.55 958.116 947.518 971.651C937.358 974.196 927.041 976.09 916.519 976.393C906.704 976.677 896.847 977.502 887.077 976.925C863.37 975.524 840.488 970.19 818.625 960.732C792.839 949.576 770.245 933.849 750.889 913.519C742.286 904.484 734.461 894.785 727.885 884.167C718.853 869.582 707.59 857.248 692.764 848.378C679.345 840.351 664.917 835.602 649.271 834.151C627.775 832.156 608.026 837.16 589.493 847.804C588.655 848.285 587.76 848.667 586.645 849.217C588.678 836.708 590.966 824.502 592.576 812.208C594.239 799.513 594.317 786.675 593.023 773.959C591.754 761.481 589.553 749.099 587.667 736.02C595.926 734.419 604.338 732.267 612.885 731.264C623.267 730.047 633.775 729.14 644.208 729.317C654.632 729.494 665.03 731.177 675.844 732.336Z" fill="black"/>
<path d="M391.437 581.335C406.701 576.33 419.92 568.484 431.019 557.507C445.957 542.733 455.818 524.994 459.465 504.166C460.558 497.919 460.677 491.502 461.225 485.161C461.331 483.931 461.356 482.693 461.464 480.569C489.429 508.089 521.406 527.26 558.665 538.022C557.501 544.489 555.336 550.427 553.167 556.337C544.495 579.963 531.972 601.351 515.398 620.317C492.395 646.639 464.492 665.879 431.668 678.002C414.361 684.394 396.566 688.414 378.146 689.788C369.356 690.444 360.465 690.853 351.848 692.541C311.663 700.409 280.427 731.815 273.015 772.104C266.707 806.397 276.103 836.268 300.366 861.306C316.845 878.311 337.131 887.867 360.593 890.577C383.194 893.186 404.165 888.108 423.656 876.553C424.201 876.23 424.829 876.045 426.18 875.474C425.489 878.365 424.93 880.673 424.387 882.984C421.424 895.582 419.292 908.3 418.834 921.262C418.648 926.49 418.15 931.719 418.223 936.942C418.433 952.016 420.127 966.942 423.349 981.681C423.489 982.32 423.684 982.947 423.807 983.588C424.641 987.932 424.484 988.289 420.313 989.333C405.327 993.083 390.136 994.954 374.652 995.202C352.994 995.548 331.881 992.704 311.188 986.372C283.833 978 259.192 964.618 237.625 945.896C200.625 913.778 177.897 873.492 169.359 825.201C166.431 808.647 165.608 791.982 166.875 775.302C168.826 749.616 175.421 725.083 186.676 701.818C197.801 678.821 212.627 658.562 231.219 641.086C244.056 629.019 258.306 618.866 273.838 610.491C294.223 599.499 315.863 592.186 338.696 588.587C347.56 587.19 356.573 586.589 365.543 586.039C374.259 585.503 382.752 584.081 391.437 581.335Z" fill="black"/>
</g>
<defs>
<clipPath id="clip0_30_2">
<rect width="1257" height="1256" fill="white"/>
</clipPath>
</defs>
</svg>
